<?xml version="1.0" encoding="utf-8"?>
<!-- Generator: Adobe Illustrator 15.0.2, SVG Export Plug-In . SVG Version: 6.00 Build 0)  -->
<!DOCTYPE svg PUBLIC "-//W3C//DTD SVG 1.1//EN" "http://www.w3.org/Graphics/SVG/1.1/DTD/svg11.dtd">
<svg version="1.1" id="LOGO" xmlns="http://www.w3.org/2000/svg" xmlns:xlink="http://www.w3.org/1999/xlink" x="0px" y="0px"
	 width="390.792px" height="50.584px" viewBox="0 0 390.792 50.584" enable-background="new 0 0 390.792 50.584"
	 xml:space="preserve">
<g>
	<g>
		<circle fill="#009FE3" cx="4.325" cy="25.294" r="4.325"/>
		<path fill="#009FE3" d="M57.739,23.673c2.89-2.688,4.186-5.517,4.186-9.106c0-4.62-2.521-9.08-6.419-11.362
			c-2.539-1.524-5.873-2.203-10.805-2.203H33.646v48.582h13.35c4.466,0,7.271-0.578,10.008-2.059
			c4.7-2.645,7.288-6.934,7.288-12.082S61.912,26.032,57.739,23.673z M41.696,28.272h4.224c3.623,0,5.631,0.326,7.323,1.244
			c1.821,1.08,3.108,3.342,3.108,5.639c0,2.445-1.276,4.551-3.393,5.777c-1.441,0.826-3.142,1.104-6.393,1.104h-4.869V28.272z
			 M51.204,20.203c-1.263,0.732-2.721,0.955-5.714,0.955h-3.794V8.476h3.794c3.161,0,5.538,0.427,6.875,1.639
			c1.217,1.104,1.911,2.822,1.911,4.595C54.275,17.06,53.113,19.113,51.204,20.203z"/>
		<polygon fill="#009FE3" points="98.63,41.961 98.63,29.102 115.129,29.102 115.129,21.485 98.63,21.485 98.63,8.621 
			117.138,8.621 117.138,1.001 90.438,1.001 90.438,49.583 117.855,49.583 117.855,41.961 		"/>
		<circle fill="#009FE3" cx="76.302" cy="25.292" r="4.946"/>
		<path fill="#009FE3" d="M223.421,1.237l-0.088-0.236h-9.692l-7.087,18.837c-0.893-0.494-1.918-0.777-3.01-0.777
			c-3.441,0-6.231,2.79-6.231,6.231c0,2.984,2.1,5.475,4.9,6.084l-6.849,18.206h8.602l4.521-12.342h20.005l4.517,12.342h8.677
			L223.421,1.237z M211.261,29.625l7.225-20.05l7.16,20.05H211.261z"/>
		<path fill="#009FE3" d="M284.669,1.001L272.455,38.84L260.395,1.254l-0.083-0.253h-8.594l5.967,17.927
			c-2.535,1.004-4.33,3.472-4.33,6.364c0,3.782,3.066,6.848,6.849,6.848c0.623,0,1.224-0.09,1.797-0.246l5.803,17.436l0.082,0.252
			h9.211l16.169-48.582H284.669z"/>
		<path fill="#009FE3" d="M312.928,1.001v16.844c-3.802,0.356-6.776,3.553-6.776,7.448c0,3.894,2.975,7.091,6.776,7.448v16.842h8.19
			V1.001H312.928z"/>
		<circle fill="#009FE3" cx="365.5" cy="25.292" r="8.127"/>
		<path fill="#009FE3" d="M365.5,0c-13.969,0-25.292,11.324-25.292,25.292c0,13.968,11.323,25.292,25.292,25.292
			c13.968,0,25.292-11.324,25.292-25.292C390.792,11.324,379.468,0,365.5,0z M365.5,42.823c-9.683,0-17.531-7.849-17.531-17.531
			c0-9.682,7.849-17.531,17.531-17.531c9.682,0,17.53,7.849,17.53,17.531C383.03,34.974,375.182,42.823,365.5,42.823z"/>
		<path fill="#009FE3" d="M177.246,1.001h-8.19v20.484h-20.502V1.001h-8.192v19.38c-0.813-0.456-1.749-0.718-2.747-0.718
			c-3.109,0-5.629,2.521-5.629,5.63c0,3.109,2.521,5.629,5.629,5.629c0.999,0,1.934-0.262,2.747-0.718v19.379h8.192v-20.48h20.502
			v20.48h8.19V1.001z"/>
	</g>
	<rect x="-25.292" y="-25.292" fill="none" width="441.376" height="101.168"/>
</g>
</svg>
