<?xml version="1.0" encoding="utf-8"?>
<!-- Generator: Adobe Illustrator 22.0.1, SVG Export Plug-In . SVG Version: 6.00 Build 0)  -->
<svg version="1.1" id="Layer_1" xmlns="http://www.w3.org/2000/svg" xmlns:xlink="http://www.w3.org/1999/xlink" x="0px" y="0px"
	 viewBox="0 0 45.2 49.3" style="enable-background:new 0 0 45.2 49.3;" xml:space="preserve">
<style type="text/css">
	.st0{fill:#1375E9;}
	.st1{fill:#EA5949;}
	.st2{fill:#092E66;}
	.st3{fill:#FFA0A0;}
	.st4{fill:#FFFFFF;}
	.st5{fill:#0D4E9C;}
	.st6{fill:#FFCCCC;}
</style>
<g>
	<g>
		<polygon class="st0" points="8.6,49.3 0,22.8 22.6,6.3 45.2,22.8 36.6,49.3 		"/>
	</g>
	<polygon class="st1" points="0,22.8 8.6,49.3 24.5,49.1 20.4,12.2 13.2,12.9 	"/>
	<polygon class="st2" points="36.6,49.3 38.1,44.7 24.7,44.1 12.1,45.6 8.6,49.3 	"/>
	<polygon class="st3" points="21.1,36 22.5,45.8 31.7,44.5 28.8,33.7 	"/>
	<polygon class="st4" points="24.2,45.6 26.4,40.9 30.3,39.2 31.7,44.5 24.5,49.1 	"/>
	<polygon class="st4" points="24.2,45.6 22,42.8 21.8,45.2 24.5,49.1 	"/>
	<g>
		<polygon class="st5" points="21.8,41.1 20.9,45.1 24.2,45.6 		"/>
	</g>
	<g>
		<polygon class="st5" points="26.4,40.9 24.2,45.6 28.3,44.6 		"/>
	</g>
	<polygon class="st6" points="21.3,41.7 14.2,40.4 13.2,15.8 24.1,13.7 33.2,18.4 31.3,32.3 	"/>
	<polygon class="st3" points="13.7,26.5 16.5,26.2 16.6,40.3 14.2,40.4 	"/>
	<polygon class="st1" points="15.7,25.1 15.8,33 17.3,33 17.5,25.1 	"/>
	<polygon class="st4" points="13.4,16.8 23.3,15.5 28.7,18.3 28.9,28.8 31.4,27.5 31.3,32.3 36.2,19 25.3,14.4 14.2,13.8 	"/>
	<polygon class="st1" points="19.5,25.2 19.5,26.5 24.9,26.4 24.8,25.1 	"/>
	<polygon class="st1" points="13.6,25.1 13.7,26.5 16.1,26.4 17.5,25.1 	"/>
	<g>
		<polygon class="st5" points="13.3,19 12.9,11 29.2,15 36.7,17.1 36.2,19 		"/>
	</g>
	<rect x="14.7" y="10.7" class="st4" width="1.5" height="8.3"/>
	<rect x="16.1" y="10.7" class="st1" width="1.5" height="8.3"/>
	<rect x="17.6" y="10.7" class="st0" width="1.5" height="8.3"/>
	<path class="st2" d="M13.3,19l-6.2,3.7c9.1,2.4,15.9,0.4,21.6-3.7L13.3,19z"/>
	<polygon class="st2" points="41.9,13.6 10.3,0 10.3,11.9 40.2,19.3 	"/>
	<g>
		<ellipse class="st4" cx="20.4" cy="29.6" rx="2.2" ry="1.4"/>
		<ellipse class="st4" cx="13.2" cy="29.6" rx="2.2" ry="1.4"/>
	</g>
	<polygon class="st4" points="21.3,41.7 16.6,38.7 14.2,40.4 14.4,43.5 19.5,43.8 	"/>
	<polygon class="st4" points="17.3,33 15.8,33 11.5,36.9 11.4,40.3 16.6,36.5 22.5,41.1 22.7,37.4 	"/>
</g>
</svg>
