<svg xmlns="http://www.w3.org/2000/svg" class="leaflet-zoom-animated" width="799" height="480" viewBox="-67 -40 799 480" style="transform: translate3d(-67px, -40px, 0px);"><g><path class="region-active leaflet-interactive" stroke="#666" stroke-opacity="1" stroke-width="1" stroke-linecap="round" stroke-linejoin="round" fill="orange" fill-opacity="1" fill-rule="evenodd" d="M228 30L232 31L234 34L241 33L243 31L244 34L246 36L249 36L252 40L249 49L250 50L257 47L257 51L253 60L250 61L250 64L247 67L241 62L237 70L237 73L230 83L235 100L242 105L243 109L241 111L241 115L235 119L232 119L233 126L230 130L225 130L221 133L199 132L198 138L194 138L185 145L184 144L172 149L169 148L156 155L154 160L150 164L143 168L138 167L131 160L133 155L129 148L129 133L126 130L119 129L115 125L109 124L105 121L109 115L109 109L125 107L129 96L134 98L142 90L147 94L151 93L154 89L153 87L156 85L155 81L159 78L183 76L189 73L189 69L197 64L201 65L217 58L220 53L231 53L234 51L234 47L228 45L226 43L227 40L222 39L223 33L225 31z" data-id="us" data-name="Ústecký kraj"></path><path class="region-active leaflet-interactive" stroke="#666" stroke-opacity="1" stroke-width="1" stroke-linecap="round" stroke-linejoin="round" fill="orange" fill-opacity="1" fill-rule="evenodd" d="M255 57L263 63L270 63L273 56L289 56L290 42L287 39L287 37L291 33L292 35L297 36L300 39L303 34L305 35L306 39L311 39L315 43L313 48L314 53L321 60L324 69L327 65L338 67L342 78L342 88L344 90L344 97L347 105L346 109L339 108L336 105L332 105L331 111L328 114L322 107L318 105L311 111L304 105L302 106L299 103L297 97L295 98L287 93L283 93L275 102L263 110L253 112L252 109L243 109L242 105L235 100L230 84L237 73L240 62L246 67L248 67L250 61L255 58z" data-id="li" data-name="Liberecký kraj"></path><path class="region-active leaflet-interactive" stroke="#666" stroke-opacity="1" stroke-width="1" stroke-linecap="round" stroke-linejoin="round" fill="orange" fill-opacity="1" fill-rule="evenodd" d="M104 122L105 121L109 124L115 125L119 129L128 131L130 145L129 148L133 155L131 161L135 164L133 165L134 170L127 173L129 178L128 179L126 179L122 175L114 175L103 183L102 189L97 188L94 190L91 187L84 187L80 191L74 190L71 193L65 193L59 189L60 183L40 173L39 169L34 165L34 155L30 149L25 146L27 138L24 134L33 136L34 142L39 143L38 146L41 149L42 155L45 156L45 148L48 145L48 142L54 134L60 131L60 127L64 124L74 122L79 123L84 118L91 116L101 121z" data-id="ka" data-name="Karlovarský kraj"></path><path class="region-active leaflet-interactive" stroke="#666" stroke-opacity="1" stroke-width="1" stroke-linecap="round" stroke-linejoin="round" fill="orange" fill-opacity="1" fill-rule="evenodd" d="M61 204L65 193L71 193L73 190L79 191L84 187L91 187L94 190L96 188L101 189L103 183L115 174L122 175L125 179L128 179L129 178L127 173L133 170L134 164L138 167L145 167L145 173L147 175L150 173L154 174L162 180L168 180L183 191L184 197L180 206L181 209L179 213L182 216L171 224L173 226L171 228L173 229L172 232L176 236L176 242L178 245L177 251L180 258L180 270L176 279L172 283L172 290L174 292L164 302L162 307L162 313L158 318L156 324L155 323L152 328L147 325L143 320L143 316L136 306L125 303L109 282L108 278L98 272L97 274L88 273L84 265L76 259L74 255L74 248L70 246L67 236L63 233L63 227L55 221L52 215L53 213L57 212L59 208L59 203z" data-id="pl" data-name=" Plzeňský kraj"></path><path class="region-active leaflet-interactive" stroke="#666" stroke-opacity="1" stroke-width="1" stroke-linecap="round" stroke-linejoin="round" fill="orange" fill-opacity="1" fill-rule="evenodd" d="M162 327L156 323L162 313L162 307L164 302L166 300L167 301L174 292L172 290L172 284L176 280L176 277L180 270L180 258L177 251L182 248L192 251L194 249L199 248L202 243L211 246L217 245L221 242L225 243L229 247L235 244L242 246L252 245L257 247L266 241L266 238L269 234L274 236L275 239L280 240L285 245L285 247L280 250L282 255L280 269L282 271L283 277L288 282L293 280L305 290L308 287L320 291L322 297L327 302L334 303L339 301L345 307L341 308L336 316L337 321L343 323L340 333L323 323L317 323L315 321L312 326L303 328L303 320L289 318L287 323L287 335L285 346L286 350L285 352L272 350L270 357L263 364L263 376L261 378L259 378L257 374L255 375L254 372L247 373L241 369L238 375L231 378L230 380L219 377L206 376L200 371L202 365L199 361L183 352L174 338L166 334L164 327z" data-id="jc" data-name="Jihočeský kraj"></path><path class="region-active leaflet-interactive" stroke="#666" stroke-opacity="1" stroke-width="1" stroke-linecap="round" stroke-linejoin="round" fill="orange" fill-opacity="1" fill-rule="evenodd" d="M338 67L349 71L353 75L362 73L368 83L378 81L381 87L381 90L379 92L380 93L384 92L389 87L393 87L397 90L399 90L401 85L412 87L420 98L417 99L418 101L416 106L413 109L409 108L401 115L401 117L399 116L399 119L405 127L413 127L415 134L419 135L423 139L435 161L425 158L423 164L413 168L409 174L401 174L399 176L387 166L381 164L379 157L373 157L366 163L362 156L357 159L355 164L350 161L347 162L342 160L333 166L328 164L323 158L325 154L323 141L321 139L309 139L308 134L301 129L301 125L304 120L303 113L301 110L303 105L311 111L317 105L322 107L328 114L331 111L332 105L336 105L339 108L347 108L344 98L344 90L342 88L342 78L339 72z" data-id="kr" data-name="Královéhradecký kraj"></path><path class="region-active leaflet-interactive" stroke="#666" stroke-opacity="1" stroke-width="1" stroke-linecap="round" stroke-linejoin="round" fill="orange" fill-opacity="1" fill-rule="evenodd" d="M467 119L480 123L484 126L488 125L492 131L497 134L503 135L501 135L505 143L508 140L508 151L503 152L501 155L494 159L490 167L491 174L485 182L485 186L488 189L485 194L485 202L490 203L491 206L500 210L503 208L512 217L517 217L519 215L523 218L532 218L534 220L535 228L538 227L542 233L549 238L550 243L554 244L555 246L552 250L548 248L544 253L544 256L541 258L530 257L530 263L522 263L518 265L515 269L503 263L501 265L503 271L496 278L490 278L487 283L485 276L481 272L476 270L476 266L470 259L468 251L463 249L461 250L463 260L460 265L453 262L455 257L452 250L453 247L448 240L448 238L451 238L453 236L455 227L458 225L457 220L454 217L454 214L448 203L450 198L447 181L455 175L457 161L461 152L465 148L469 148L469 146L472 149L474 148L470 137L466 134L463 125L460 121L460 119L465 118z" data-id="ol" data-name="Olomoucký kraj"></path><path class="region-active leaflet-interactive" stroke="#666" stroke-opacity="1" stroke-width="1" stroke-linecap="round" stroke-linejoin="round" fill="orange" fill-opacity="1" fill-rule="evenodd" d="M435 161L441 166L445 166L454 154L461 152L457 161L455 174L447 181L450 198L448 203L454 214L454 217L457 220L458 225L455 227L455 231L452 235L448 232L433 231L431 232L430 235L417 236L408 232L404 227L398 223L392 223L389 220L382 217L380 217L380 219L374 223L371 222L353 206L344 207L340 201L334 197L336 192L335 184L329 179L323 177L321 174L326 171L326 166L328 164L333 166L341 160L346 162L350 161L354 164L356 163L357 159L362 156L366 163L372 157L379 157L381 164L387 165L392 171L399 176L401 174L411 173L413 168L423 164L425 158z" data-id="pa" data-name="Pardubický kraj"></path><path class="region-active leaflet-interactive" stroke="#666" stroke-opacity="1" stroke-width="1" stroke-linecap="round" stroke-linejoin="round" fill="orange" fill-opacity="1" fill-rule="evenodd" d="M535 134L539 138L538 145L540 150L534 154L527 155L525 157L530 164L538 165L542 176L549 183L552 184L558 180L566 179L567 178L566 176L564 176L564 172L572 177L572 181L578 182L586 186L590 192L594 190L593 189L600 190L607 194L613 191L615 199L617 200L615 203L615 207L619 215L620 221L626 222L628 225L634 225L636 227L636 232L640 246L639 248L636 248L630 252L625 252L622 250L614 251L612 252L610 258L607 259L601 266L599 265L599 267L596 265L594 259L588 251L581 252L578 249L562 250L559 246L555 246L554 244L550 243L548 237L542 233L539 227L534 227L534 221L532 218L523 218L520 215L517 217L512 217L503 208L500 210L492 206L491 203L485 201L485 195L488 190L485 186L485 182L491 174L490 168L494 159L501 155L503 152L507 152L509 150L508 140L511 145L515 141L530 142L535 135z" data-id="mo" data-name="Moravskoslezský kraj"></path><path class="region-active leaflet-interactive" stroke="#666" stroke-opacity="1" stroke-width="1" stroke-linecap="round" stroke-linejoin="round" fill="orange" fill-opacity="1" fill-rule="evenodd" d="M354 339L340 333L343 323L345 323L348 327L352 323L357 326L366 318L370 319L371 316L374 315L377 311L379 314L392 314L395 310L402 307L405 304L404 298L406 296L406 292L404 292L404 286L407 284L406 279L409 275L417 270L414 253L419 249L419 247L415 243L417 237L430 235L432 231L443 231L448 232L452 235L453 234L451 238L448 237L449 242L453 246L452 249L455 256L453 262L460 265L463 261L461 251L462 249L467 251L469 253L471 260L476 265L476 270L481 272L485 276L486 281L484 286L486 292L491 297L482 305L482 307L485 309L491 307L493 308L493 315L503 318L510 327L515 325L520 326L523 332L527 333L530 336L531 341L518 345L514 341L506 344L496 339L488 339L483 342L475 354L467 374L464 370L463 361L461 358L452 359L448 356L442 355L440 350L429 346L421 348L415 357L398 354L389 355L384 353L375 346L375 344L367 340L365 337L356 339z" data-id="jm" data-name="Jihomoravský kraj"></path><path class="region-active leaflet-interactive" stroke="#666" stroke-opacity="1" stroke-width="1" stroke-linecap="round" stroke-linejoin="round" fill="orange" fill-opacity="1" fill-rule="evenodd" d="M596 273L593 276L578 283L574 291L573 306L570 313L565 317L557 317L554 320L553 327L551 330L543 331L539 338L531 341L529 334L523 332L520 327L515 325L510 327L503 318L497 317L493 314L492 307L485 309L482 306L487 300L491 298L486 292L484 284L486 282L487 283L490 278L496 278L502 273L502 263L515 269L521 263L530 263L530 257L544 257L544 254L548 248L552 250L555 246L559 246L561 250L577 249L581 252L588 251L595 260L596 265L598 267L598 272z" data-id="zl" data-name="Zlínský kraj"></path><path class="region-active leaflet-interactive" stroke="#666" stroke-opacity="1" stroke-width="1" stroke-linecap="round" stroke-linejoin="round" fill="orange" fill-opacity="1" fill-rule="evenodd" d="M417 236L415 242L419 249L414 252L417 269L406 278L407 283L404 286L403 290L406 293L404 297L405 304L392 314L380 314L377 312L374 315L372 315L370 319L366 318L357 326L353 323L348 327L345 323L337 321L336 316L340 309L345 308L345 306L340 301L335 303L328 302L322 297L321 291L309 287L306 290L293 280L288 282L282 276L282 272L280 269L282 259L280 250L285 247L283 243L286 241L286 239L288 239L289 236L305 237L312 233L312 230L306 224L310 215L315 215L326 208L328 209L331 206L334 198L338 199L344 207L353 206L371 222L374 223L380 219L380 217L382 217L390 221L391 223L398 223L404 227L408 232L415 235z" data-id="vy" data-name="Kraj Vysočina"></path><path class="region-active leaflet-interactive" stroke="#666" stroke-opacity="1" stroke-width="1" stroke-linecap="round" stroke-linejoin="round" fill="orange" fill-opacity="1" fill-rule="evenodd" d="M334 197L331 206L328 209L326 208L315 215L312 214L309 217L306 224L312 230L312 232L305 237L288 236L289 238L286 239L284 243L282 243L279 239L276 239L274 236L271 236L270 234L266 237L266 241L257 247L253 247L252 245L242 246L237 244L229 247L224 242L220 242L217 245L211 246L203 243L192 251L183 248L177 251L178 244L176 242L176 236L172 232L173 229L171 228L173 226L171 225L171 223L175 220L178 220L182 215L179 213L181 209L180 206L184 198L183 192L169 180L160 180L154 174L151 173L147 175L145 173L145 167L146 165L152 162L156 156L169 148L172 149L183 144L187 144L194 138L198 138L198 134L200 132L221 133L225 130L230 130L233 126L232 119L236 119L244 108L251 109L253 112L263 110L273 103L275 103L282 93L287 93L295 98L297 97L299 103L302 106L301 109L303 112L304 119L301 125L301 129L308 134L309 139L313 138L320 139L323 141L325 152L323 158L328 163L326 166L326 172L323 173L322 176L336 185L335 196zM253 180L259 178L258 172L262 167L248 155L231 159L229 163L226 162L219 165L222 168L221 171L228 181L229 186L244 182L248 179L251 180z" data-id="st" data-name="Středočeský kraj"></path></g></svg>