<svg xmlns="http://www.w3.org/2000/svg" class="leaflet-zoom-animated" width="216" height="180" viewBox="0 30 216 180" style="transform: translate3d(0px, 0px, 0px);"><g><path class="region-inactive leaflet-interactive" stroke="#666" stroke-opacity="1" stroke-width="1" stroke-linecap="round" stroke-linejoin="round" fill="#fff" fill-opacity="0" fill-rule="evenodd" d="M106 150L108 135L93 136L95 123L88 121L86 119L84 112L86 110L98 118L107 106L110 85L106 74L112 73L124 81L126 90L142 75L138 93L141 103L131 108L136 139L132 140L126 147L111 145z" data-name="Brno-město" data-id="58"></path><path class="region-inactive leaflet-interactive" stroke="#666" stroke-opacity="1" stroke-width="1" stroke-linecap="round" stroke-linejoin="round" fill="#fff" fill-opacity="0" fill-rule="evenodd" d="M86 110L84 112L86 119L88 121L83 126L77 116L71 120L59 103L69 105L73 98L85 99L90 98L94 94L97 94L101 96L103 99L108 100L107 106L98 118z" data-name="Brno-město" data-id="59"></path><path class="region-active leaflet-interactive" stroke="#666" stroke-opacity="1" stroke-width="1" stroke-linecap="round" stroke-linejoin="round" fill="orange" fill-opacity="1" fill-rule="evenodd" d="M93 95L90 98L85 99L73 98L74 95L69 95L73 76L71 71L86 61L96 48L108 47L115 51L103 56L112 65L112 73L106 74L109 85L108 100L103 99L101 96L97 94L93 95z" data-name="Brno-město" data-id="60"></path></g></svg>
