<svg xmlns="http://www.w3.org/2000/svg" class="leaflet-zoom-animated" width="799" viewBox="-50 0 799 400" style="transform: translate3d(0px, 0px, 0px);"><g><path class="region-active leaflet-interactive" stroke="#666" stroke-opacity="1" stroke-width="1" stroke-linecap="round" stroke-linejoin="round" fill="orange" fill-opacity="1" fill-rule="evenodd" d="M68 234L65 233L65 223L57 221L54 213L60 209L60 203L63 202L67 190L61 188L60 186L63 183L48 173L47 175L46 172L41 170L42 168L35 163L35 159L37 157L35 151L26 143L30 140L27 134L34 133L36 140L40 141L41 144L39 144L44 148L42 151L46 155L48 152L47 145L49 146L50 140L52 138L55 141L57 140L63 148L62 153L64 156L61 158L62 162L69 167L70 171L73 172L76 168L77 171L79 171L74 175L79 178L78 185L81 190L91 188L95 190L98 188L101 190L105 188L110 192L110 196L112 198L110 202L113 202L117 207L114 212L116 212L118 215L113 219L116 221L113 224L112 229L109 231L106 229L99 230L98 234L96 232L89 232L86 234L85 231L85 234L80 234L78 237L75 238L74 235L73 237z" data-id="3" data-name="Cheb"></path><path class="region-inactive leaflet-interactive" stroke="#666" stroke-opacity="1" stroke-width="1" stroke-linecap="round" stroke-linejoin="round" fill="#fff" fill-opacity="0" fill-rule="evenodd" d="M158 324L154 324L155 327L153 327L145 321L145 316L140 307L135 303L127 302L124 299L124 296L116 287L116 285L111 283L111 277L104 272L97 270L98 273L94 271L88 271L86 264L82 260L77 259L76 247L72 245L68 234L73 237L74 235L75 238L78 237L80 234L85 234L85 231L86 234L89 232L96 232L98 234L99 230L106 229L109 231L110 236L112 232L118 231L117 233L121 235L123 238L123 241L120 242L121 246L125 248L123 251L127 252L127 254L130 255L129 252L131 252L134 256L138 257L149 257L147 263L149 264L144 269L151 271L149 272L150 274L151 273L151 277L159 278L161 276L172 278L173 283L175 283L171 288L174 292L171 293L171 296L166 300L163 299L163 304L161 305L163 307L163 312L160 312L157 321z" data-id="11" data-name="Domažlice"></path><path class="region-inactive leaflet-interactive" stroke="#666" stroke-opacity="1" stroke-width="1" stroke-linecap="round" stroke-linejoin="round" fill="#fff" fill-opacity="0" fill-rule="evenodd" d="M75 120L78 120L82 123L84 118L92 114L106 124L110 123L117 125L117 129L119 130L120 128L127 128L130 133L128 135L130 136L128 140L130 140L129 146L132 147L128 148L134 155L132 157L134 160L129 160L131 162L133 161L136 165L133 168L135 169L134 172L130 172L130 179L116 175L112 165L107 166L104 173L101 173L98 169L94 170L91 168L96 162L93 162L95 160L94 153L92 151L89 152L87 150L85 140L83 140L80 137L81 135L78 135L78 131L76 128L78 124z" data-id="1" data-name="Karlovy Vary"></path><path class="region-active leaflet-interactive" stroke="#666" stroke-opacity="1" stroke-width="1" stroke-linecap="round" stroke-linejoin="round" fill="orange" fill-opacity="1" fill-rule="evenodd" d="M228 162L221 156L218 164L213 169L214 171L202 172L199 175L197 172L194 172L193 169L188 164L189 160L192 162L194 161L193 155L202 155L211 147L221 142L220 146L231 149L234 152L231 154L235 155L236 159L233 158L232 163L228 162z" data-id="30" data-name="Kladno"></path><path class="region-inactive leaflet-interactive" stroke="#666" stroke-opacity="1" stroke-width="1" stroke-linecap="round" stroke-linejoin="round" fill="#fff" fill-opacity="0" fill-rule="evenodd" d="M148 261L149 257L138 257L134 256L131 252L129 252L130 255L127 254L127 252L123 251L125 248L121 246L120 242L123 241L123 238L121 235L117 233L118 231L112 232L110 236L109 235L109 231L112 229L113 226L116 227L118 224L122 222L123 224L125 222L127 225L131 226L136 221L137 224L143 223L147 225L149 224L143 217L151 215L152 217L155 217L158 220L156 220L158 222L162 223L161 229L162 228L166 230L167 229L177 231L176 242L179 244L176 251L178 253L179 258L177 264L178 267L180 268L178 273L174 276L175 280L172 280L172 278L161 276L159 278L151 277L151 273L150 274L149 272L151 271L144 269L145 267L148 266L149 264L147 263z" data-id="7" data-name="Plzeň-město"></path><path class="region-inactive leaflet-interactive" stroke="#666" stroke-opacity="1" stroke-width="1" stroke-linecap="round" stroke-linejoin="round" fill="#fff" fill-opacity="0" fill-rule="evenodd" d="M243 284L245 287L252 288L252 292L254 292L259 298L265 299L270 309L276 314L278 314L277 321L279 321L278 324L281 329L279 332L275 333L271 331L271 343L267 341L265 338L261 339L257 337L251 331L249 331L250 329L247 325L242 328L241 324L239 324L238 321L236 322L235 318L240 317L240 313L243 311L241 309L242 306L245 306L245 302L249 300L240 294L240 290L242 289zM247 296L249 293L243 290L241 292L246 294z" data-id="14" data-name="České Budějovice"></path><path class="region-active leaflet-interactive" stroke="#666" stroke-opacity="1" stroke-width="1" stroke-linecap="round" stroke-linejoin="round" fill="orange" fill-opacity="1" fill-rule="evenodd" d="M521 283L525 283L529 280L531 275L529 274L531 272L537 273L541 270L545 271L551 266L554 274L556 273L560 279L563 277L566 279L570 285L569 286L571 294L575 293L576 297L573 301L574 306L573 308L569 307L566 303L561 304L559 299L554 298L553 293L550 295L548 293L538 296L533 292L530 295L524 293L524 290L527 290L527 288L523 288z" data-id="78" data-name="Zlín"></path><path class="region-inactive leaflet-interactive" stroke="#666" stroke-opacity="1" stroke-width="1" stroke-linecap="round" stroke-linejoin="round" fill="#666" fill-opacity="0.5" fill-rule="evenodd" d="M232 160L233 158L236 159L236 161L241 164L238 170L233 166L235 166L235 162z" data-id="27" data-name="Praha 1"></path><path class="region-inactive leaflet-interactive" stroke="#666" stroke-opacity="1" stroke-width="1" stroke-linecap="round" stroke-linejoin="round" fill="#666" fill-opacity="0.5" fill-rule="evenodd" d="M438 304L439 300L435 300L433 294L436 296L439 293L438 285L443 287L443 289L447 285L447 292L445 294L446 301L443 303L439 303z" data-id="58" data-name="Brno-město"></path><path class="region-active leaflet-interactive" stroke="#666" stroke-opacity="1" stroke-width="1" stroke-linecap="round" stroke-linejoin="round" fill="orange" fill-opacity="1" fill-rule="evenodd" d="M176 336L169 336L165 326L164 327L161 323L158 324L157 321L160 312L163 312L163 307L161 305L163 304L163 299L166 300L171 296L171 293L174 292L171 288L175 283L173 283L172 280L175 280L174 276L178 273L180 268L178 267L177 264L179 258L178 253L176 251L178 248L183 246L184 248L187 246L192 249L195 247L205 252L208 266L213 266L214 274L220 276L221 283L218 283L219 289L223 291L226 289L227 293L224 295L224 299L222 300L221 305L211 307L213 311L211 316L205 316L204 314L201 313L189 315L190 318L188 320L184 319L186 324L185 327L180 332L177 332L177 334z" data-id="12" data-name="Strakonice"></path><path class="region-inactive leaflet-interactive" stroke="#666" stroke-opacity="1" stroke-width="1" stroke-linecap="round" stroke-linejoin="round" fill="#fff" fill-opacity="0" fill-rule="evenodd" d="M203 130L203 130zM203 130L202 127L195 124L197 120L196 117L192 117L190 119L187 109L194 103L196 106L199 107L202 104L201 101L203 102L203 96L208 95L210 97L212 93L215 93L216 90L218 91L220 89L221 84L222 86L231 86L239 104L242 104L244 107L241 108L242 115L238 115L237 119L234 117L232 118L234 121L234 126L232 129L224 129L222 132L227 135L225 141L217 143L205 151L204 148L198 147L197 145L191 148L190 145L187 145L188 141L194 139L195 136L199 136L198 132L201 130z" data-id="29" data-name="Litoměřice"></path><path class="region-inactive leaflet-interactive" stroke="#666" stroke-opacity="1" stroke-width="1" stroke-linecap="round" stroke-linejoin="round" fill="#fff" fill-opacity="0" fill-rule="evenodd" d="M189 107L190 101L198 98L197 95L192 93L194 92L191 86L192 82L190 80L192 78L192 75L189 74L190 66L194 66L198 62L202 64L204 63L203 67L207 68L205 72L207 72L210 77L212 76L218 83L221 84L220 89L218 91L216 90L215 93L212 93L210 97L208 95L203 96L203 102L201 101L202 104L199 107L196 106L194 103z" data-id="31" data-name="Ústí nad Labem"></path><path class="region-inactive leaflet-interactive" stroke="#666" stroke-opacity="1" stroke-width="1" stroke-linecap="round" stroke-linejoin="round" fill="#fff" fill-opacity="0" fill-rule="evenodd" d="M221 142L225 141L227 137L227 135L222 132L224 129L230 128L232 129L232 132L234 131L234 134L243 133L243 130L240 126L240 122L243 122L248 128L251 128L250 130L254 132L254 136L265 139L267 141L267 144L263 149L264 152L268 152L269 150L270 155L266 155L264 158L262 154L259 155L257 161L253 159L254 157L248 156L248 154L242 155L236 159L235 155L231 154L234 152L231 149L220 146z" data-id="28" data-name="Mělník"></path><path class="region-active leaflet-interactive" stroke="#666" stroke-opacity="1" stroke-width="1" stroke-linecap="round" stroke-linejoin="round" fill="orange" fill-opacity="1" fill-rule="evenodd" d="M281 351L282 350L280 349L281 346L279 344L279 340L274 340L271 334L271 331L275 333L279 332L281 329L278 324L279 321L277 321L278 314L276 314L270 309L268 303L271 301L273 304L274 303L270 298L273 296L273 294L269 293L267 288L273 289L279 286L279 282L281 280L278 277L283 276L282 272L284 270L280 267L281 262L283 260L282 257L284 256L282 246L285 246L285 238L290 238L288 236L290 234L292 236L301 234L304 235L305 237L306 234L308 233L311 234L312 232L316 234L322 232L330 236L327 241L328 244L326 247L329 250L324 255L324 258L327 261L325 262L324 265L326 265L324 269L325 273L322 272L323 275L320 280L321 282L318 280L314 289L322 289L322 298L326 301L325 305L319 305L323 313L322 315L318 313L315 314L309 311L308 316L311 318L309 320L296 319L296 317L292 316L289 318L290 319L288 323L290 333L286 348L289 350L286 353z" data-id="15" data-name="Pelhřimov"></path><path class="region-active leaflet-interactive" stroke="#666" stroke-opacity="1" stroke-width="1" stroke-linecap="round" stroke-linejoin="round" fill="orange" fill-opacity="1" fill-rule="evenodd" d="M491 246L489 243L485 243L483 245L482 242L477 242L470 232L471 231L466 230L464 226L457 226L458 219L457 217L453 217L455 215L453 213L454 212L451 209L451 205L448 203L451 197L450 190L452 189L453 191L455 189L457 192L465 194L468 199L469 198L472 202L475 200L476 201L478 198L481 198L482 201L486 196L489 201L493 199L492 204L495 204L501 199L505 198L507 201L505 206L508 209L508 206L512 202L512 204L514 203L513 198L516 197L516 204L518 208L520 208L520 216L517 215L517 213L511 213L510 219L507 217L505 219L504 226L495 231L495 227L493 229L494 233L488 231L488 239L491 237L492 238L489 241L490 243L492 243z" data-id="66" data-name="Olomouc"></path><path class="region-inactive leaflet-interactive" stroke="#666" stroke-opacity="1" stroke-width="1" stroke-linecap="round" stroke-linejoin="round" fill="#666" fill-opacity="0.5" fill-rule="evenodd" d="M236 175L237 170L241 170L244 172L242 174L243 175L241 176L242 177L240 175L238 176zM240 173L240 173z" data-id="20" data-name="Praha 4"></path><path class="region-inactive leaflet-interactive" stroke="#666" stroke-opacity="1" stroke-width="1" stroke-linecap="round" stroke-linejoin="round" fill="#fff" fill-opacity="0" fill-rule="evenodd" d="M535 216L532 213L528 215L523 212L520 212L520 208L518 208L516 204L516 197L513 198L514 203L512 204L512 202L508 206L508 209L505 206L507 201L505 198L501 199L495 204L492 204L493 199L489 201L486 196L488 192L487 190L490 189L491 186L487 182L488 178L493 172L492 165L495 162L494 159L500 153L504 152L507 147L511 149L511 143L514 143L514 141L532 140L535 136L535 132L539 136L541 136L538 143L542 146L541 150L537 151L537 153L526 156L528 159L531 160L531 163L534 164L535 162L539 165L543 172L543 176L548 177L545 186L547 187L546 194L540 198L539 202L537 202L536 208L539 209L535 215z" data-id="64" data-name="Bruntál"></path><path class="region-inactive leaflet-interactive" stroke="#666" stroke-opacity="1" stroke-width="1" stroke-linecap="round" stroke-linejoin="round" fill="#fff" fill-opacity="0" fill-rule="evenodd" d="M344 327L343 324L338 322L338 320L335 321L335 319L339 316L341 309L349 305L350 292L348 291L349 289L347 287L350 284L353 287L356 285L354 280L358 278L356 276L358 275L358 271L359 272L362 270L364 272L367 270L371 274L375 272L377 276L380 276L380 274L384 276L385 280L389 279L391 283L393 280L397 282L400 286L401 284L404 284L403 290L405 290L406 295L403 295L402 296L404 299L400 301L405 304L402 306L401 309L396 309L393 311L395 313L389 315L384 313L382 316L379 314L378 311L374 315L372 314L370 318L365 318L362 322L359 322L357 327L355 324L351 324L349 328L346 325z" data-id="53" data-name="Třebíč"></path><path class="region-inactive leaflet-interactive" stroke="#666" stroke-opacity="1" stroke-width="1" stroke-linecap="round" stroke-linejoin="round" fill="#fff" fill-opacity="0" fill-rule="evenodd" d="M388 181L397 181L398 183L401 184L403 182L403 177L407 172L412 173L410 170L414 168L412 166L415 165L417 162L418 163L425 159L425 156L427 155L437 160L439 163L446 165L448 164L449 160L453 158L454 154L458 150L460 151L457 163L455 164L456 167L454 169L456 173L449 180L446 179L451 197L448 201L440 199L433 202L433 205L430 205L429 200L421 200L418 195L412 196L403 189L400 189L399 196L390 196L391 193L389 191L389 183z" data-id="46" data-name="Ústí nad Orlicí"></path><path class="region-inactive leaflet-interactive" stroke="#666" stroke-opacity="1" stroke-width="1" stroke-linecap="round" stroke-linejoin="round" fill="#fff" fill-opacity="0" fill-rule="evenodd" d="M504 294L494 301L495 306L484 309L483 305L485 305L486 301L482 304L477 305L477 294L483 291L484 286L478 275L481 272L483 272L487 282L491 278L497 278L501 273L505 272L503 265L506 262L506 266L513 266L515 270L519 266L519 264L529 264L532 261L529 258L531 256L532 258L534 255L539 259L543 257L546 261L549 260L549 267L545 271L541 270L537 273L531 272L529 274L531 275L529 280L525 283L521 283L518 281L516 284L518 287L515 289L516 290L509 293z" data-id="76" data-name="Kroměříž"></path><path class="region-active leaflet-interactive" stroke="#666" stroke-opacity="1" stroke-width="1" stroke-linecap="round" stroke-linejoin="round" fill="orange" fill-opacity="1" fill-rule="evenodd" d="M369 180L372 177L367 176L368 174L366 171L356 169L355 162L353 161L358 159L358 156L361 154L364 156L364 159L366 160L374 155L381 157L381 154L385 148L381 145L379 136L383 136L384 134L388 138L389 136L392 137L393 134L398 131L401 131L402 128L403 130L405 130L409 125L414 125L414 129L418 134L421 133L432 148L432 156L435 158L434 159L427 155L425 156L425 159L418 163L417 162L415 165L412 166L414 168L410 170L412 173L407 172L403 177L403 182L401 184L398 183L397 181L392 180L378 183L374 180L371 180L370 182z" data-id="48" data-name="Rychnov nad Kněžnou"></path><path class="region-inactive leaflet-interactive" stroke="#666" stroke-opacity="1" stroke-width="1" stroke-linecap="round" stroke-linejoin="round" fill="#fff" fill-opacity="0" fill-rule="evenodd" d="M191 214L186 195L189 195L189 191L192 189L192 182L195 176L196 178L199 177L199 175L202 172L214 171L213 169L218 164L221 156L228 161L220 165L222 164L223 167L225 168L222 171L224 172L224 174L228 176L226 179L228 181L230 180L231 183L229 185L234 187L236 183L237 184L243 180L246 180L246 182L244 182L245 186L239 188L242 191L240 194L234 193L231 195L226 192L220 196L218 195L205 207L204 210L197 204L196 206L193 207L193 212z" data-id="16" data-name="Beroun"></path><path class="region-inactive leaflet-interactive" stroke="#666" stroke-opacity="1" stroke-width="1" stroke-linecap="round" stroke-linejoin="round" fill="#fff" fill-opacity="0" fill-rule="evenodd" d="M344 327L340 330L340 332L337 331L336 328L333 326L329 326L321 321L320 323L317 321L314 326L311 325L308 327L304 327L306 324L304 322L305 320L309 320L311 318L308 316L309 311L315 314L318 313L322 315L323 313L319 305L321 304L325 306L326 301L322 298L322 289L315 289L315 286L318 280L321 282L320 280L322 272L325 273L324 269L326 265L324 265L325 262L327 261L324 258L324 255L329 250L330 251L332 249L337 252L341 251L343 253L348 253L346 252L349 247L351 247L353 250L356 247L355 243L360 245L368 257L367 262L363 261L363 265L365 265L366 269L368 270L364 272L362 270L359 272L358 271L358 275L356 276L358 278L354 280L356 285L353 287L350 284L347 287L349 289L348 291L350 292L349 305L342 309L340 311L339 316L335 319L335 321L338 320L338 322L343 324z" data-id="52" data-name="Jihlava"></path><path class="region-inactive leaflet-interactive" stroke="#666" stroke-opacity="1" stroke-width="1" stroke-linecap="round" stroke-linejoin="round" fill="#666" fill-opacity="0.5" fill-rule="evenodd" d="M240 173L240 173zM246 180L243 180L241 183L236 183L234 187L229 185L231 183L230 180L228 180L230 175L232 174L233 176L240 175L242 177L241 176L243 175L246 176L251 174L249 175L250 177L247 178z" data-id="17" data-name="Praha 12"></path><path class="region-inactive leaflet-interactive" stroke="#666" stroke-opacity="1" stroke-width="1" stroke-linecap="round" stroke-linejoin="round" fill="#fff" fill-opacity="0" fill-rule="evenodd" d="M270 153L270 145L278 141L283 144L289 144L290 137L295 136L296 131L302 129L300 126L301 124L303 124L305 118L303 115L304 111L301 108L305 106L311 109L314 104L321 106L324 109L325 107L326 111L332 108L330 105L334 103L334 101L337 105L340 106L342 104L345 108L350 109L349 115L353 116L356 122L355 124L358 131L357 133L342 135L339 133L339 131L335 131L335 134L332 132L332 135L330 137L327 137L327 139L324 141L324 147L326 148L327 151L323 156L324 157L318 157L315 159L315 164L307 164L306 166L302 165L303 162L306 161L302 155L298 153L295 155L287 156L280 151L278 152L277 155L272 155z" data-id="37" data-name="Jičín"></path><path class="region-active leaflet-interactive" stroke="#666" stroke-opacity="1" stroke-width="1" stroke-linecap="round" stroke-linejoin="round" fill="orange" fill-opacity="1" fill-rule="evenodd" d="M445 315L441 314L439 316L434 311L433 306L439 303L443 303L445 301L445 294L447 292L447 285L443 289L443 287L440 285L438 281L440 279L442 280L442 276L455 280L458 277L455 276L457 272L455 268L460 267L463 263L465 259L461 252L464 250L469 252L472 261L474 261L474 267L481 272L478 275L484 286L483 291L478 294L476 302L474 303L474 308L466 308L457 314L454 312L453 315L450 316L447 313z" data-id="57" data-name="Vyškov"></path><path class="region-inactive leaflet-interactive" stroke="#666" stroke-opacity="1" stroke-width="1" stroke-linecap="round" stroke-linejoin="round" fill="#fff" fill-opacity="0" fill-rule="evenodd" d="M339 186L332 181L330 177L323 173L327 173L324 171L328 170L327 166L328 164L330 165L331 161L322 158L324 157L323 156L327 151L341 157L341 159L349 159L355 162L356 169L366 171L368 174L367 176L372 177L369 180L366 179L364 182L357 181L351 183L349 186L341 188z" data-id="43" data-name="Pardubice"></path><path class="region-inactive leaflet-interactive" stroke="#666" stroke-opacity="1" stroke-width="1" stroke-linecap="round" stroke-linejoin="round" fill="#666" fill-opacity="0.5" fill-rule="evenodd" d="M228 170L224 172L222 171L225 168L223 167L222 164L220 165L228 161L232 163L232 160L235 162L235 166L233 166L235 168L228 170z" data-id="25" data-name="Praha 6"></path><path class="region-active leaflet-interactive" stroke="#666" stroke-opacity="1" stroke-width="1" stroke-linecap="round" stroke-linejoin="round" fill="orange" fill-opacity="1" fill-rule="evenodd" d="M340 332L340 330L346 325L349 328L351 324L355 324L357 327L359 322L362 322L365 318L370 318L372 314L374 315L378 311L379 314L382 316L384 313L389 315L395 313L393 311L396 309L401 309L402 306L404 305L406 306L406 308L410 308L415 313L417 310L423 314L425 318L425 322L421 328L425 330L425 332L422 333L420 340L420 344L424 346L422 347L419 355L414 357L413 354L412 356L390 354L381 350L377 346L378 344L375 344L375 342L370 339L369 340L366 337L361 337L359 340L354 339L347 334L343 334z" data-id="54" data-name="Znojmo"></path><path class="region-inactive leaflet-interactive" stroke="#666" stroke-opacity="1" stroke-width="1" stroke-linecap="round" stroke-linejoin="round" fill="#fff" fill-opacity="0" fill-rule="evenodd" d="M113 226L113 224L116 221L113 219L118 215L116 212L114 212L117 207L113 202L110 202L112 198L110 196L110 192L105 188L106 185L104 183L115 178L116 175L130 179L130 172L134 172L135 169L133 168L136 165L138 165L139 167L141 164L142 168L145 167L147 169L145 174L148 175L149 173L156 173L154 176L159 178L160 180L169 179L172 184L176 184L176 187L182 189L182 184L192 185L192 189L189 191L189 195L186 195L191 214L189 218L188 216L187 219L180 224L177 231L167 229L166 230L162 228L161 229L162 224L158 222L156 220L158 220L155 217L152 217L151 211L146 210L145 207L140 207L140 211L135 208L133 211L135 212L134 216L136 218L136 221L131 226L127 225L125 222L123 224L122 222L118 224L116 227z" data-id="8" data-name="Rokycany"></path><path class="region-inactive leaflet-interactive" stroke="#666" stroke-opacity="1" stroke-width="1" stroke-linecap="round" stroke-linejoin="round" fill="#fff" fill-opacity="0" fill-rule="evenodd" d="M314 104L312 103L311 100L314 94L313 91L302 91L300 89L301 83L299 83L300 78L302 76L300 74L303 71L303 68L301 66L302 61L305 59L307 61L309 60L317 63L316 60L319 56L324 59L324 68L326 68L329 64L339 68L339 70L343 74L341 77L343 86L342 88L345 92L342 96L348 105L344 106L342 104L340 106L337 105L334 101L334 103L330 105L332 108L326 111L325 107L324 109L321 106L319 106z" data-id="35" data-name="Jablonec nad Nisou"></path><path class="region-inactive leaflet-interactive" stroke="#666" stroke-opacity="1" stroke-width="1" stroke-linecap="round" stroke-linejoin="round" fill="#fff" fill-opacity="0" fill-rule="evenodd" d="M159 118L159 110L157 110L151 99L148 100L149 97L144 96L141 91L143 90L142 86L146 91L151 93L156 88L155 86L158 83L156 79L162 77L162 79L166 81L164 86L167 87L172 96L170 100L178 104L177 107L180 109L179 115L181 116L180 118L172 120L166 118L164 121z" data-id="4" data-name="Most"></path><path class="region-inactive leaflet-interactive" stroke="#666" stroke-opacity="1" stroke-width="1" stroke-linecap="round" stroke-linejoin="round" fill="#fff" fill-opacity="0" fill-rule="evenodd" d="M491 246L492 243L490 243L489 241L492 238L491 237L488 239L488 231L494 233L493 229L495 227L495 231L504 226L505 219L507 217L510 219L511 213L517 213L517 215L520 216L520 212L523 212L528 215L532 213L534 214L536 218L531 223L531 228L527 232L530 240L527 239L522 242L515 240L513 243L513 247L507 247L500 252L503 257L497 257L494 253z" data-id="61" data-name="Olomouc"></path><path class="region-active leaflet-interactive" stroke="#666" stroke-opacity="1" stroke-width="1" stroke-linecap="round" stroke-linejoin="round" fill="orange" fill-opacity="1" fill-rule="evenodd" d="M358 131L353 116L349 115L350 109L345 108L344 106L348 105L342 96L345 92L342 88L343 86L341 77L343 74L339 70L339 68L343 68L357 74L365 71L369 82L371 83L378 80L380 81L382 89L380 91L384 94L391 85L395 86L398 89L401 89L403 83L409 85L409 90L406 94L407 95L404 96L403 94L399 100L395 98L393 103L391 104L391 109L387 109L385 112L378 111L375 114L376 122L375 123L372 121L371 124L366 128L362 128z" data-id="39" data-name="Trutnov"></path><path class="region-inactive leaflet-interactive" stroke="#666" stroke-opacity="1" stroke-width="1" stroke-linecap="round" stroke-linejoin="round" fill="#fff" fill-opacity="0" fill-rule="evenodd" d="M440 279L436 279L429 284L430 286L423 279L423 271L420 268L416 268L415 265L415 257L417 254L414 251L414 249L416 251L419 246L415 242L417 241L417 238L418 239L419 236L430 237L431 232L433 231L436 233L439 231L441 233L446 232L455 236L453 239L449 238L449 244L455 244L455 248L453 250L454 256L456 256L457 259L454 260L454 262L460 266L455 268L457 272L455 276L458 277L455 280L442 276L442 280zM423 267L423 269L426 267z" data-id="49" data-name="Blansko"></path><path class="region-inactive leaflet-interactive" stroke="#666" stroke-opacity="1" stroke-width="1" stroke-linecap="round" stroke-linejoin="round" fill="#fff" fill-opacity="0" fill-rule="evenodd" d="M197 248L205 241L205 245L211 246L220 243L220 241L224 240L226 243L230 244L230 246L235 243L236 244L236 241L238 244L240 243L241 245L243 243L250 245L256 243L261 236L255 231L250 232L250 229L255 229L257 227L259 228L266 224L271 224L272 228L275 228L275 233L273 235L276 239L277 237L281 243L284 243L285 246L282 246L284 256L282 257L283 260L281 262L280 267L284 269L282 272L283 276L278 277L281 280L279 282L279 286L273 289L267 288L269 293L273 294L273 296L270 298L274 303L273 304L271 301L266 303L265 299L259 298L254 292L252 292L252 288L245 287L241 280L237 282L235 274L233 274L234 277L229 277L233 287L230 287L228 285L226 286L226 289L223 291L219 289L218 283L221 283L220 276L214 274L213 266L208 266L205 252L199 249z" data-id="13" data-name="Tábor"></path><path class="region-inactive leaflet-interactive" stroke="#666" stroke-opacity="1" stroke-width="1" stroke-linecap="round" stroke-linejoin="round" fill="#fff" fill-opacity="0" fill-rule="evenodd" d="M284 243L281 243L279 239L277 237L276 239L273 235L275 233L275 228L272 228L271 224L275 221L276 211L281 212L283 208L288 214L286 205L282 203L277 197L284 191L284 194L289 193L290 196L293 193L292 190L300 191L302 185L305 184L307 186L311 184L311 182L313 184L315 179L317 180L320 178L319 177L322 174L330 177L332 181L339 185L337 187L339 189L336 199L347 207L347 211L352 214L350 217L345 218L345 221L342 221L341 230L337 235L334 236L340 239L342 238L342 243L339 243L338 246L335 244L330 251L326 247L328 244L327 241L330 237L322 232L316 234L312 232L311 234L308 233L306 234L305 237L304 235L301 234L295 236L292 236L290 234L288 236L290 238L285 238L285 242z" data-id="40" data-name="Kutná Hora"></path><path class="region-inactive leaflet-interactive" stroke="#666" stroke-opacity="1" stroke-width="1" stroke-linecap="round" stroke-linejoin="round" fill="#fff" fill-opacity="0" fill-rule="evenodd" d="M613 250L608 237L609 236L608 234L604 235L603 230L610 228L609 224L607 223L608 221L603 223L604 221L600 214L606 213L606 215L610 219L613 217L611 213L618 209L619 214L621 215L620 218L624 221L628 221L631 225L637 224L640 241L642 242L640 246L632 251L628 249L618 250L618 248z" data-id="73" data-name="Frýdek-Místek"></path><path class="region-inactive leaflet-interactive" stroke="#666" stroke-opacity="1" stroke-width="1" stroke-linecap="round" stroke-linejoin="round" fill="#fff" fill-opacity="0" fill-rule="evenodd" d="M180 112L180 109L177 107L178 104L170 100L172 96L167 87L164 86L166 81L162 79L162 77L169 75L173 77L175 74L182 74L184 76L187 73L192 75L192 78L190 80L192 82L191 86L194 92L192 93L197 95L198 98L190 101L190 106L184 112z" data-id="32" data-name="Teplice"></path><path class="region-inactive leaflet-interactive" stroke="#666" stroke-opacity="1" stroke-width="1" stroke-linecap="round" stroke-linejoin="round" fill="#fff" fill-opacity="0" fill-rule="evenodd" d="M288 93L288 85L284 84L290 79L290 75L286 68L287 65L291 64L294 61L293 57L290 55L289 47L292 45L292 41L291 38L289 39L287 37L289 34L292 33L300 34L300 37L302 37L303 34L306 33L308 39L309 37L312 36L313 39L315 39L317 43L315 45L316 52L319 56L316 60L317 63L309 60L307 61L305 59L302 61L301 66L303 68L303 71L300 74L302 76L300 77L299 83L301 83L301 94L298 99L294 98L291 93z" data-id="34" data-name="Liberec"></path><path class="region-inactive leaflet-interactive" stroke="#666" stroke-opacity="1" stroke-width="1" stroke-linecap="round" stroke-linejoin="round" fill="#fff" fill-opacity="0" fill-rule="evenodd" d="M374 155L374 144L369 144L368 141L363 141L361 137L358 135L356 137L354 134L357 133L362 128L366 128L371 124L372 121L375 123L375 114L378 111L385 112L387 109L391 109L391 104L393 103L395 98L399 100L403 94L404 96L407 95L406 94L409 90L409 85L413 85L422 97L418 98L418 104L413 109L410 107L408 111L406 110L405 113L400 115L399 118L402 121L404 121L407 127L405 130L403 130L402 128L401 131L398 131L393 134L392 137L389 136L388 138L384 134L383 136L379 136L381 145L385 148L381 154L381 157L376 156z" data-id="47" data-name="Náchod"></path><path class="region-inactive leaflet-interactive" stroke="#666" stroke-opacity="1" stroke-width="1" stroke-linecap="round" stroke-linejoin="round" fill="#fff" fill-opacity="0" fill-rule="evenodd" d="M269 150L268 152L264 152L263 149L267 144L267 141L257 136L259 135L257 133L259 131L264 131L267 128L263 125L265 122L260 117L262 109L265 108L265 105L268 106L268 100L275 102L278 99L276 98L282 96L282 91L284 91L286 94L291 93L294 98L298 99L302 91L313 91L314 94L311 100L312 103L314 104L312 108L311 109L305 106L301 107L304 111L303 115L305 118L303 124L301 124L300 126L302 129L296 131L295 136L290 137L289 144L283 144L278 141L270 145z" data-id="38" data-name="Mladá Boleslav"></path><path class="region-inactive leaflet-interactive" stroke="#666" stroke-opacity="1" stroke-width="1" stroke-linecap="round" stroke-linejoin="round" fill="#fff" fill-opacity="0" fill-rule="evenodd" d="M424 346L420 344L422 333L425 332L425 330L421 328L425 322L424 319L428 319L432 316L433 321L436 320L440 322L441 319L447 313L450 316L453 315L454 312L457 314L463 311L464 320L466 319L467 322L465 328L468 329L463 330L465 332L464 337L468 341L468 345L474 343L476 346L480 348L481 347L476 352L472 362L469 365L470 368L468 371L465 372L464 360L461 358L452 359L447 355L443 357L442 350L435 349L431 345L429 347L425 347z" data-id="56" data-name="Břeclav"></path><path class="region-inactive leaflet-interactive" stroke="#666" stroke-opacity="1" stroke-width="1" stroke-linecap="round" stroke-linejoin="round" fill="#fff" fill-opacity="0" fill-rule="evenodd" d="M575 293L571 294L569 286L570 285L566 279L563 277L560 279L556 273L554 274L551 266L549 267L549 260L546 261L543 257L543 255L545 254L544 251L549 249L549 246L553 248L556 244L560 244L563 246L563 249L578 247L581 250L587 252L590 251L595 257L597 263L600 264L601 268L597 274L591 277L580 279L580 282L577 285L577 291z" data-id="77" data-name="Vsetín"></path><path class="region-active leaflet-interactive" stroke="#666" stroke-opacity="1" stroke-width="1" stroke-linecap="round" stroke-linejoin="round" fill="orange" fill-opacity="1" fill-rule="evenodd" d="M368 270L366 269L365 265L363 265L363 261L367 262L368 257L360 245L363 238L361 235L364 231L366 232L365 229L369 228L369 224L372 222L377 223L382 216L383 219L389 220L391 224L394 223L404 227L417 238L417 241L415 242L419 246L416 251L414 249L414 251L417 254L415 257L413 257L413 254L411 254L408 257L412 258L405 260L405 263L402 264L403 266L401 270L404 272L404 274L408 274L408 276L405 279L405 281L408 284L401 284L400 286L397 282L393 280L391 283L389 279L385 280L384 276L380 274L380 276L377 276L375 272L371 274L367 271z" data-id="51" data-name="Žďár nad Sázavou"></path><path class="region-inactive leaflet-interactive" stroke="#666" stroke-opacity="1" stroke-width="1" stroke-linecap="round" stroke-linejoin="round" fill="#666" fill-opacity="0.5" fill-rule="evenodd" d="M254 172L251 169L247 170L245 173L239 170L248 166L251 169L253 167L256 170L254 172z" data-id="22" data-name="Praha 10"></path><path class="region-inactive leaflet-interactive" stroke="#666" stroke-opacity="1" stroke-width="1" stroke-linecap="round" stroke-linejoin="round" fill="#fff" fill-opacity="0" fill-rule="evenodd" d="M382 216L381 211L383 207L379 206L379 202L376 195L373 192L378 186L378 183L388 181L389 191L391 193L390 196L399 196L400 189L403 189L412 196L418 195L421 200L429 200L430 205L433 205L433 202L440 199L448 201L449 199L448 203L451 205L451 209L454 212L453 213L455 215L453 217L457 217L458 219L458 225L455 228L455 236L446 232L441 233L439 231L436 233L433 231L431 232L430 237L419 236L418 239L413 234L406 231L404 227L394 223L391 224L389 220L383 219z" data-id="50" data-name="Svitavy"></path><path class="region-inactive leaflet-interactive" stroke="#666" stroke-opacity="1" stroke-width="1" stroke-linecap="round" stroke-linejoin="round" fill="#fff" fill-opacity="0" fill-rule="evenodd" d="M79 184L79 184zM105 188L101 190L98 188L95 190L91 188L81 190L78 185L79 178L74 175L79 171L77 171L76 168L75 171L70 171L69 167L62 162L61 158L64 156L62 153L63 148L57 140L55 141L52 138L54 136L54 133L56 133L60 129L61 130L64 123L75 120L78 124L76 128L78 131L78 135L81 135L80 137L83 140L85 140L87 150L89 152L92 151L94 153L95 160L93 162L96 162L91 168L94 170L98 169L101 173L104 173L107 166L112 165L116 175L115 178L104 183L106 185z" data-id="2" data-name="Sokolov"></path><path class="region-inactive leaflet-interactive" stroke="#666" stroke-opacity="1" stroke-width="1" stroke-linecap="round" stroke-linejoin="round" fill="#666" fill-opacity="0.5" fill-rule="evenodd" d="M580 214L576 211L577 206L581 208L581 211L585 205L589 209L586 212L586 210L581 210L582 216z" data-id="71" data-name="Ostrava-město"></path><path class="region-inactive leaflet-interactive" stroke="#666" stroke-opacity="1" stroke-width="1" stroke-linecap="round" stroke-linejoin="round" fill="#fff" fill-opacity="0" fill-rule="evenodd" d="M247 296L246 294L241 292L243 290L249 293zM176 336L177 332L180 332L185 327L186 324L184 319L188 320L190 318L189 315L201 313L204 314L205 316L211 316L213 311L211 307L221 305L222 300L224 299L224 295L227 293L226 286L228 285L230 287L233 287L229 277L234 277L233 274L235 274L237 282L241 280L243 284L242 289L240 290L240 294L249 300L245 302L245 306L242 306L241 309L243 311L240 313L240 317L235 318L236 322L238 321L239 324L241 324L242 328L247 325L250 329L249 331L251 331L261 339L265 338L267 341L271 343L272 337L274 340L279 340L279 344L281 346L280 349L282 350L273 350L273 356L267 361L264 368L265 374L263 377L260 377L258 373L256 374L254 371L251 373L245 372L242 368L240 369L241 371L238 376L234 376L235 378L232 378L231 381L229 381L224 377L221 378L216 375L210 376L204 374L204 371L200 369L204 367L204 364L202 364L200 360L195 359L187 351L182 351L182 347L180 343L178 343z" data-id="10" data-name="Český Krumlov"></path><path class="region-inactive leaflet-interactive" stroke="#666" stroke-opacity="1" stroke-width="1" stroke-linecap="round" stroke-linejoin="round" fill="#666" fill-opacity="0.5" fill-rule="evenodd" d="M581 222L579 218L576 217L580 214L582 216L581 210L585 210L586 212L589 209L585 205L583 206L584 203L582 202L582 199L591 194L593 191L591 196L594 196L595 201L597 201L596 204L600 207L600 213L599 215L595 216L591 214L588 215L588 217L583 216L585 219z" data-id="70" data-name="Ostrava-město"></path><path class="region-active leaflet-interactive" stroke="#666" stroke-opacity="1" stroke-width="1" stroke-linecap="round" stroke-linejoin="round" fill="orange" fill-opacity="1" fill-rule="evenodd" d="M334 154L327 151L326 148L324 147L324 141L327 139L327 137L330 137L332 135L332 132L335 134L335 131L339 131L339 133L342 135L352 133L356 137L358 135L361 137L363 141L368 141L369 144L374 144L375 153L374 155L371 156L371 158L368 158L366 160L364 159L364 156L361 154L358 156L358 159L353 161L349 159L341 159L341 157z" data-id="45" data-name="Hradec Králové"></path><path class="region-active leaflet-interactive" stroke="#666" stroke-opacity="1" stroke-width="1" stroke-linecap="round" stroke-linejoin="round" fill="orange" fill-opacity="1" fill-rule="evenodd" d="M504 250L507 247L513 247L513 243L515 240L522 242L527 239L530 240L527 232L531 228L531 223L536 218L542 217L543 213L548 217L547 220L552 220L551 224L556 224L561 227L557 232L557 234L562 240L560 244L556 244L553 248L549 246L549 249L544 251L545 254L543 255L543 257L539 259L534 255L532 258L531 256L529 258L532 261L529 264L519 264L519 266L515 270L513 266L506 266L506 262L509 260L506 259L510 254L509 252L505 251z" data-id="63" data-name="Přerov"></path><path class="region-inactive leaflet-interactive" stroke="#666" stroke-opacity="1" stroke-width="1" stroke-linecap="round" stroke-linejoin="round" fill="#666" fill-opacity="0.5" fill-rule="evenodd" d="M250 177L249 175L251 174L246 176L242 174L246 170L251 169L254 172L256 170L258 171L260 176L258 180L254 178z" data-id="19" data-name="Praha 11"></path><path class="region-inactive leaflet-interactive" stroke="#666" stroke-opacity="1" stroke-width="1" stroke-linecap="round" stroke-linejoin="round" fill="#fff" fill-opacity="0" fill-rule="evenodd" d="M423 267L426 267L423 269zM424 319L425 318L423 314L417 310L415 313L410 308L406 308L406 306L404 305L405 304L400 301L404 299L402 296L406 295L405 290L403 290L404 284L408 284L405 281L408 274L404 274L404 272L401 270L403 266L402 264L405 263L405 260L412 258L408 257L411 254L413 254L413 257L415 257L416 268L420 268L423 271L423 279L430 286L429 293L426 292L432 298L434 297L435 300L439 300L438 304L433 306L434 311L439 316L441 314L445 315L440 322L436 320L433 321L432 316L428 319z" data-id="55" data-name="Brno-město"></path><path class="region-inactive leaflet-interactive" stroke="#666" stroke-opacity="1" stroke-width="1" stroke-linecap="round" stroke-linejoin="round" fill="#666" fill-opacity="0.5" fill-rule="evenodd" d="M147 221L149 224L147 225L143 223L137 224L136 218L134 216L135 212L133 211L135 208L140 211L140 207L145 207L146 210L151 211L151 215L143 217z" data-id="9" data-name="Plzeň-město"></path><path class="region-inactive leaflet-interactive" stroke="#666" stroke-opacity="1" stroke-width="1" stroke-linecap="round" stroke-linejoin="round" fill="#fff" fill-opacity="0" fill-rule="evenodd" d="M460 266L454 262L454 260L457 259L456 256L454 256L453 250L455 248L455 244L449 244L449 238L453 239L455 236L455 228L460 225L461 227L464 226L466 230L471 231L470 232L477 242L482 242L483 245L485 243L489 243L497 257L503 257L500 252L504 250L509 252L510 254L506 259L509 260L503 265L505 272L501 273L497 278L491 278L487 282L483 272L474 267L475 264L474 261L472 261L469 252L464 250L461 252L465 259L463 263z" data-id="62" data-name="Prostějov"></path><path class="region-inactive leaflet-interactive" stroke="#666" stroke-opacity="1" stroke-width="1" stroke-linecap="round" stroke-linejoin="round" fill="#fff" fill-opacity="0" fill-rule="evenodd" d="M546 215L543 213L542 217L536 218L535 216L539 209L536 208L537 202L539 202L540 198L546 194L547 187L545 186L548 180L551 183L557 182L559 178L564 176L567 178L567 174L564 174L566 170L572 173L572 177L577 182L579 179L582 179L584 183L579 186L580 188L576 189L575 193L577 195L574 196L571 194L571 197L568 201L570 204L568 204L567 207L563 206L562 204L559 209L555 210L553 213L546 213z" data-id="68" data-name="Opava"></path><path class="region-inactive leaflet-interactive" stroke="#666" stroke-opacity="1" stroke-width="1" stroke-linecap="round" stroke-linejoin="round" fill="#fff" fill-opacity="0" fill-rule="evenodd" d="M117 129L117 125L110 123L106 124L104 122L104 120L110 116L111 107L117 108L120 105L121 107L126 107L132 94L135 97L138 96L138 92L141 91L144 96L149 97L148 100L151 99L157 110L159 110L158 113L160 115L157 122L159 125L148 127L148 136L145 137L144 141L137 141L131 148L129 146L130 140L128 140L130 136L128 135L130 133L127 128L120 128L119 130z" data-id="5" data-name="Chomutov"></path><path class="region-inactive leaflet-interactive" stroke="#666" stroke-opacity="1" stroke-width="1" stroke-linecap="round" stroke-linejoin="round" fill="#fff" fill-opacity="0" fill-rule="evenodd" d="M332 249L335 244L338 246L339 243L342 243L342 238L340 239L334 236L337 235L341 230L342 221L345 221L345 218L350 217L352 214L347 211L347 207L336 199L339 189L337 187L339 186L341 188L349 186L351 183L364 182L366 179L369 180L370 182L371 180L374 180L378 183L378 186L373 192L376 195L376 199L379 202L379 206L383 207L381 211L382 216L377 223L372 222L369 224L369 228L366 228L366 232L364 231L361 235L363 238L361 244L360 245L355 243L356 247L353 250L351 247L349 247L346 252L348 253L343 253L341 251L337 252L333 250z" data-id="44" data-name="Chrudim"></path><path class="region-active leaflet-interactive" stroke="#666" stroke-opacity="1" stroke-width="1" stroke-linecap="round" stroke-linejoin="round" fill="orange" fill-opacity="1" fill-rule="evenodd" d="M600 264L597 263L595 257L590 251L590 247L585 243L587 240L580 229L581 222L585 219L583 216L588 217L588 215L591 214L595 216L599 215L600 213L600 216L602 216L604 221L603 223L608 221L607 223L609 224L610 228L603 230L604 235L608 234L611 247L613 250L613 254L604 264z" data-id="69" data-name="Frýdek-Místek"></path><path class="region-active leaflet-interactive" stroke="#666" stroke-opacity="1" stroke-width="1" stroke-linecap="round" stroke-linejoin="round" fill="orange" fill-opacity="1" fill-rule="evenodd" d="M512 342L510 341L512 340L511 336L504 327L502 327L501 317L497 317L497 315L493 314L492 306L495 306L494 301L504 294L512 303L521 304L525 309L523 311L528 320L531 319L534 322L535 320L540 328L543 330L536 339L530 339L526 343L520 345L514 340z" data-id="81" data-name="Uherské Hradiště"></path><path class="region-active leaflet-interactive" stroke="#666" stroke-opacity="1" stroke-width="1" stroke-linecap="round" stroke-linejoin="round" fill="orange" fill-opacity="1" fill-rule="evenodd" d="M221 84L218 83L212 76L210 77L207 72L205 72L207 68L203 67L204 63L218 57L224 51L227 53L235 51L235 45L228 43L227 41L229 40L229 38L225 39L223 37L225 30L228 28L238 33L241 31L244 33L244 30L246 30L245 33L254 38L254 41L250 47L252 48L258 46L259 50L257 51L255 59L251 59L250 65L247 66L243 63L240 63L241 68L238 70L237 73L239 74L234 76L234 81L231 83L231 86L222 86z" data-id="33" data-name="Děčín"></path><path class="region-inactive leaflet-interactive" stroke="#666" stroke-opacity="1" stroke-width="1" stroke-linecap="round" stroke-linejoin="round" fill="#fff" fill-opacity="0" fill-rule="evenodd" d="M543 331L535 320L534 322L531 319L528 320L523 311L525 309L521 304L512 303L504 294L516 290L515 289L518 287L516 284L518 281L521 283L523 288L527 288L527 290L524 290L524 293L530 295L533 292L538 296L548 293L550 295L553 293L554 298L559 299L561 304L566 303L569 307L573 308L571 313L568 315L557 316L553 329L543 330z" data-id="80" data-name="Zlín"></path><path class="region-inactive leaflet-interactive" stroke="#666" stroke-opacity="1" stroke-width="1" stroke-linecap="round" stroke-linejoin="round" fill="#666" fill-opacity="0.5" fill-rule="evenodd" d="M606 213L600 214L600 207L596 204L597 201L595 201L594 196L591 196L595 189L594 186L603 188L606 191L603 195L599 195L601 198L601 206L606 205L606 208L609 211z" data-id="74" data-name="Karviná"></path><path class="region-inactive leaflet-interactive" stroke="#666" stroke-opacity="1" stroke-width="1" stroke-linecap="round" stroke-linejoin="round" fill="#fff" fill-opacity="0" fill-rule="evenodd" d="M481 347L480 348L476 346L474 343L468 345L468 341L464 337L465 332L463 330L468 329L465 328L467 322L466 319L464 320L463 311L466 308L474 308L474 303L476 302L477 305L482 304L486 301L485 305L483 305L484 309L492 306L493 314L497 315L497 317L501 317L502 327L504 327L511 336L512 340L510 341L512 342L508 345L505 345L501 341L490 337L483 342z" data-id="79" data-name="Hodonín"></path><path class="region-inactive leaflet-interactive" stroke="#666" stroke-opacity="1" stroke-width="1" stroke-linecap="round" stroke-linejoin="round" fill="#666" fill-opacity="0.5" fill-rule="evenodd" d="M606 213L609 211L607 210L606 205L601 206L601 198L599 195L603 195L606 191L612 193L613 190L616 190L615 196L618 199L615 203L618 209L611 213L613 217L610 219L606 215z" data-id="75" data-name="Karviná"></path><path class="region-inactive leaflet-interactive" stroke="#666" stroke-opacity="1" stroke-width="1" stroke-linecap="round" stroke-linejoin="round" fill="#666" fill-opacity="0.5" fill-rule="evenodd" d="M433 294L434 297L432 298L426 292L429 293L430 291L437 290L439 292L436 296z" data-id="59" data-name="Brno-město"></path><path class="region-inactive leaflet-interactive" stroke="#666" stroke-opacity="1" stroke-width="1" stroke-linecap="round" stroke-linejoin="round" fill="#fff" fill-opacity="0" fill-rule="evenodd" d="M590 251L587 252L581 250L578 247L563 249L563 246L560 244L562 240L557 234L561 227L556 224L551 224L552 220L547 220L548 217L546 213L553 213L555 210L559 209L562 204L563 206L567 207L568 204L575 202L576 211L580 214L576 217L579 218L581 222L580 229L587 240L585 243L590 247z" data-id="67" data-name="Nový Jičín"></path><path class="region-inactive leaflet-interactive" stroke="#666" stroke-opacity="1" stroke-width="1" stroke-linecap="round" stroke-linejoin="round" fill="#fff" fill-opacity="0" fill-rule="evenodd" d="M271 224L261 226L260 221L257 224L255 224L253 219L251 223L247 223L245 220L242 221L237 217L236 214L238 213L237 208L239 208L238 206L240 204L240 201L238 199L248 199L247 197L249 194L247 193L247 191L249 189L247 185L245 186L244 182L246 182L247 178L250 177L258 180L260 176L258 171L263 169L264 167L260 165L259 162L263 160L264 162L267 162L269 164L266 167L269 178L277 177L278 175L278 178L280 180L285 180L283 188L283 186L280 188L282 191L284 191L277 197L282 203L286 205L288 214L283 208L281 212L276 211L275 221z" data-id="41" data-name="Benešov"></path><path class="region-inactive leaflet-interactive" stroke="#666" stroke-opacity="1" stroke-width="1" stroke-linecap="round" stroke-linejoin="round" fill="#666" fill-opacity="0.5" fill-rule="evenodd" d="M243 165L244 161L248 160L250 157L254 157L253 159L259 162L260 165L264 167L263 169L258 171L253 167L251 169L248 166L248 163L245 163L244 165zM245 163L245 163z" data-id="24" data-name="Praha 9"></path><path class="region-active leaflet-interactive" stroke="#666" stroke-opacity="1" stroke-width="1" stroke-linecap="round" stroke-linejoin="round" fill="orange" fill-opacity="1" fill-rule="evenodd" d="M284 191L282 191L280 188L283 186L283 188L285 180L280 180L278 178L278 175L277 177L269 178L266 167L269 164L267 162L264 162L263 160L259 162L257 161L259 155L262 154L263 158L266 155L270 155L270 153L272 155L277 155L278 152L280 151L287 156L295 155L298 153L302 155L306 161L303 162L302 165L306 166L307 164L315 164L315 159L318 157L331 161L330 165L328 164L327 166L328 170L324 171L327 173L323 173L327 176L322 174L319 177L320 178L317 180L315 179L313 184L311 182L311 184L307 186L305 184L302 185L300 191L292 190L293 193L291 196L289 193L284 194z" data-id="42" data-name="Kolín"></path><path class="region-inactive leaflet-interactive" stroke="#666" stroke-opacity="1" stroke-width="1" stroke-linecap="round" stroke-linejoin="round" fill="#666" fill-opacity="0.5" fill-rule="evenodd" d="M238 170L240 166L245 163L248 163L248 166L239 170zM245 163L245 163z" data-id="26" data-name="Praha 2"></path><path class="region-inactive leaflet-interactive" stroke="#666" stroke-opacity="1" stroke-width="1" stroke-linecap="round" stroke-linejoin="round" fill="#fff" fill-opacity="0" fill-rule="evenodd" d="M450 190L446 179L449 180L456 173L454 169L456 167L455 164L457 163L460 151L465 147L468 148L470 144L472 148L475 146L473 143L474 140L472 136L467 134L467 130L465 128L464 123L460 121L462 116L464 115L470 120L472 118L482 122L485 125L491 124L491 127L495 132L499 134L504 132L504 142L506 139L511 140L511 149L507 147L504 152L500 153L494 159L495 162L492 165L493 172L488 178L487 182L491 186L490 189L487 190L488 192L484 200L482 201L481 198L478 198L476 201L475 200L472 202L469 198L468 199L465 194L457 192L455 189L453 191L452 189z" data-id="65" data-name="Šumperk"></path><path class="region-active leaflet-interactive" stroke="#666" stroke-opacity="1" stroke-width="1" stroke-linecap="round" stroke-linejoin="round" fill="orange" fill-opacity="1" fill-rule="evenodd" d="M136 165L133 161L131 162L129 160L134 160L132 157L134 155L128 148L131 148L137 141L144 141L145 137L148 136L148 127L159 125L157 122L159 118L164 121L166 118L180 118L180 112L184 112L187 109L190 119L192 117L196 117L197 120L195 124L202 127L203 130L198 132L199 136L195 136L194 139L188 141L187 145L190 145L191 148L197 145L198 147L204 148L205 151L207 150L202 155L193 155L194 161L192 162L189 160L188 164L193 169L194 172L197 172L199 175L199 177L196 178L195 176L192 185L182 184L182 189L176 187L176 184L172 184L169 179L160 180L159 178L154 176L156 173L149 173L148 175L145 174L147 169L145 167L142 168L141 164L139 167L138 165zM203 130L203 130z" data-id="6" data-name="Louny"></path><path class="region-inactive leaflet-interactive" stroke="#666" stroke-opacity="1" stroke-width="1" stroke-linecap="round" stroke-linejoin="round" fill="#666" fill-opacity="0.5" fill-rule="evenodd" d="M435 290L430 291L429 284L439 278L439 292L435 290z" data-id="60" data-name="Brno-město"></path><path class="region-active leaflet-interactive" stroke="#666" stroke-opacity="1" stroke-width="1" stroke-linecap="round" stroke-linejoin="round" fill="orange" fill-opacity="1" fill-rule="evenodd" d="M257 136L254 136L255 134L250 130L251 128L248 128L243 122L240 122L240 126L243 130L243 133L234 134L234 131L231 131L234 126L234 121L232 118L234 117L237 119L238 115L242 115L241 108L244 107L242 104L239 104L236 95L232 90L231 83L234 81L234 76L239 74L237 73L238 70L241 68L240 63L243 63L247 66L250 65L251 59L255 59L256 57L264 59L265 62L272 62L274 55L290 55L294 61L291 64L287 65L286 68L290 75L290 79L284 84L288 85L288 93L286 94L284 91L282 91L282 96L276 98L278 99L275 102L268 100L268 106L265 105L265 108L262 109L260 117L265 122L263 125L267 128L264 131L259 131L257 133L259 135z" data-id="36" data-name="Česká Lípa"></path><path class="region-inactive leaflet-interactive" stroke="#666" stroke-opacity="1" stroke-width="1" stroke-linecap="round" stroke-linejoin="round" fill="#666" fill-opacity="0.5" fill-rule="evenodd" d="M240 166L239 167L241 165L240 163L236 161L236 159L238 157L248 154L248 156L250 157L248 160L244 161L244 163L240 166z" data-id="23" data-name="Praha 8"></path><path class="region-inactive leaflet-interactive" stroke="#666" stroke-opacity="1" stroke-width="1" stroke-linecap="round" stroke-linejoin="round" fill="#666" fill-opacity="0.5" fill-rule="evenodd" d="M570 204L568 201L571 197L571 194L574 196L577 195L575 193L576 189L580 188L579 186L584 183L589 184L589 188L593 191L591 194L582 199L582 202L584 203L581 211L581 208L577 206L575 202z" data-id="72" data-name="Ostrava-město"></path><path class="region-inactive leaflet-interactive" stroke="#666" stroke-opacity="1" stroke-width="1" stroke-linecap="round" stroke-linejoin="round" fill="#666" fill-opacity="0.5" fill-rule="evenodd" d="M230 180L228 181L226 179L228 177L224 174L224 172L231 168L237 168L236 175L230 175L228 180z" data-id="21" data-name="Praha 5"></path><path class="region-active leaflet-interactive" stroke="#666" stroke-opacity="1" stroke-width="1" stroke-linecap="round" stroke-linejoin="round" fill="orange" fill-opacity="1" fill-rule="evenodd" d="M197 248L195 247L192 249L187 246L184 248L183 246L178 248L179 244L176 242L177 231L180 224L182 222L183 223L188 216L189 218L193 212L193 207L196 206L197 204L204 210L205 207L218 195L220 196L226 192L231 195L234 193L240 194L242 191L239 188L247 185L249 189L247 191L247 193L249 194L247 197L248 199L238 199L240 201L240 204L238 206L239 208L237 208L238 213L236 214L237 217L242 221L245 220L247 223L251 223L253 219L255 224L257 224L260 221L261 226L259 228L257 227L255 229L250 229L250 232L255 231L261 236L256 243L250 245L243 243L241 245L240 243L238 244L236 241L236 244L235 243L230 246L230 244L226 243L224 240L220 241L220 243L211 246L205 245L205 241L198 246z" data-id="18" data-name="Příbram"></path></g></svg>