<svg xmlns="http://www.w3.org/2000/svg" class="leaflet-zoom-animated" width="216" height="180" viewBox="-35 30 240 180" style="transform: translate3d(0px, 0px, 0px);"><g><path class="region-inactive leaflet-interactive" stroke="#666" stroke-opacity="1" stroke-width="1" stroke-linecap="round" stroke-linejoin="round" fill="#fff" fill-opacity="0" fill-rule="evenodd" d="M11 157L-3 145L2 125L15 129L16 141L27 127L26 122L34 120L50 136L36 147L37 139L32 138L27 144L18 141L22 163z" data-name="Ostrava-město" data-id="71"></path><path class="region-inactive leaflet-interactive" stroke="#666" stroke-opacity="1" stroke-width="1" stroke-linecap="round" stroke-linejoin="round" fill="#fff" fill-opacity="0" fill-rule="evenodd" d="M19 186L8 179L8 171L-2 168L11 157L22 163L18 141L27 144L32 138L37 139L36 147L50 136L34 120L26 122L27 109L20 108L20 97L30 93L56 76L63 64L65 70L56 85L63 89L69 82L72 102L80 105L78 115L95 128L92 152L88 159L74 162L57 155L45 160L45 167L25 162L33 173z" data-name="Ostrava-město" data-id="70"></path><path class="region-inactive leaflet-interactive" stroke="#666" stroke-opacity="1" stroke-width="1" stroke-linecap="round" stroke-linejoin="round" fill="#fff" fill-opacity="0" fill-rule="evenodd" d="M117 152L95 154L92 152L95 128L78 115L80 105L72 102L69 82L63 89L56 85L65 70L63 64L74 55L68 44L89 53L103 50L104 56L116 62L106 81L90 79L96 91L93 102L99 122L108 117L118 119L115 130L119 140L128 142z" data-name="Karviná" data-id="74"></path><path class="region-active leaflet-interactive" stroke="#666" stroke-opacity="1" stroke-width="1" stroke-linecap="round" stroke-linejoin="round" fill="orange" fill-opacity="1" fill-rule="evenodd" d="M117 152L128 142L119 140L115 130L118 119L108 117L99 122L93 102L96 91L90 79L106 81L116 62L128 70L141 72L145 57L155 60L158 69L153 83L166 96L154 109L164 133L153 139L139 152L144 169L132 175L117 160z" data-name="Karviná" data-id="75"></path><path class="region-active leaflet-interactive" stroke="#666" stroke-opacity="1" stroke-width="1" stroke-linecap="round" stroke-linejoin="round" fill="orange" fill-opacity="1" fill-rule="evenodd" d="M-28 113L-34 102L-23 86L-23 77L-10 82L-1 77L-6 70L-2 56L11 52L9 43L29 33L48 36L48 49L64 63L56 76L30 93L20 97L20 108L27 109L27 127L16 141L15 129L-4 124L-2 114L-9 109z" data-name="Ostrava-město" data-id="72"></path></g></svg>
