<svg xmlns="http://www.w3.org/2000/svg" class="leaflet-zoom-animated" width="216" height="180" viewBox="-10 20 216 180" style="transform: translate3d(-0px, -0px, 0px);"><g><path class="region-active leaflet-interactive" stroke="#666" stroke-opacity="1" stroke-width="1" stroke-linecap="round" stroke-linejoin="round" fill="orange" fill-opacity="1" fill-rule="evenodd" d="M49 60L52 50L64 53L68 62L82 70L87 76L79 85L72 99L69 92L53 80L64 81L63 65z" data-name="27" data-id="Praha 1"></path><path class="region-inactive leaflet-interactive" stroke="#666" stroke-opacity="1" stroke-width="1" stroke-linecap="round" stroke-linejoin="round" fill="#fff" fill-opacity="0" fill-rule="evenodd" d="M65 117L71 99L74 100L80 97L97 106L99 110L90 112L93 118L88 121L90 125L88 125L84 118L76 122zM83 110L83 110z" data-name="20" data-id="Praha 4"></path><path class="region-inactive leaflet-interactive" stroke="#666" stroke-opacity="1" stroke-width="1" stroke-linecap="round" stroke-linejoin="round" fill="#fff" fill-opacity="0" fill-rule="evenodd" d="M83 110L83 110zM106 138L95 139L88 151L81 149L72 155L65 151L57 165L42 164L38 158L45 149L41 138L35 137L41 117L48 114L52 122L65 117L76 122L84 118L88 125L90 125L88 121L93 118L97 122L106 123L116 119L125 113L118 120L121 127L109 130z" data-name="17" data-id="Praha 12"></path><path class="region-inactive leaflet-interactive" stroke="#666" stroke-opacity="1" stroke-width="1" stroke-linecap="round" stroke-linejoin="round" fill="#fff" fill-opacity="0" fill-rule="evenodd" d="M35 98L19 106L10 101L22 88L14 85L10 76L1 76L32 62L35 67L51 69L49 60L63 65L64 81L53 80L64 89L36 93L37 96L35 98z" data-name="25" data-id="Praha 6"></path><path class="region-inactive leaflet-interactive" stroke="#666" stroke-opacity="1" stroke-width="1" stroke-linecap="round" stroke-linejoin="round" fill="#fff" fill-opacity="0" fill-rule="evenodd" d="M136 105L130 102L126 94L109 96L102 109L99 110L98 106L80 97L94 90L98 85L113 83L125 92L132 88L146 99L136 105z" data-name="22" data-id="Praha 10"></path><path class="region-inactive leaflet-interactive" stroke="#666" stroke-opacity="1" stroke-width="1" stroke-linecap="round" stroke-linejoin="round" fill="#fff" fill-opacity="0" fill-rule="evenodd" d="M121 127L118 120L125 113L116 119L106 123L97 122L90 112L102 109L109 96L126 94L130 102L136 105L146 99L152 102L162 113L162 124L152 138L139 129z" data-name="19" data-id="Praha 11"></path><path class="region-active leaflet-interactive" stroke="#666" stroke-opacity="1" stroke-width="1" stroke-linecap="round" stroke-linejoin="round" fill="orange" fill-opacity="1" fill-rule="evenodd" d="M95 79L93 79L95 76L94 77L94 74L98 69L96 62L97 61L105 63L114 58L123 46L137 47L135 53L141 62L149 61L159 65L162 76L170 77L177 85L174 93L152 102L132 88L125 92L113 83L113 71L103 71L99 78zM104 72L104 72z" data-name="24" data-id="Praha 9"></path><path class="region-inactive leaflet-interactive" stroke="#666" stroke-opacity="1" stroke-width="1" stroke-linecap="round" stroke-linejoin="round" fill="#fff" fill-opacity="0" fill-rule="evenodd" d="M74 100L73 99L78 85L99 78L103 71L113 71L113 82L98 85L93 90L80 97zM104 72L104 72z" data-name="26" data-id="Praha 2"></path><path class="region-inactive leaflet-interactive" stroke="#666" stroke-opacity="1" stroke-width="1" stroke-linecap="round" stroke-linejoin="round" fill="#fff" fill-opacity="0" fill-rule="evenodd" d="M82 83L79 85L87 76L83 70L68 63L64 53L75 45L88 44L89 38L113 34L114 43L123 46L114 58L105 63L97 61L96 62L98 69L94 74L94 77L95 76L93 79L82 83z" data-name="23" data-id="Praha 8"></path><path class="region-active leaflet-interactive" stroke="#666" stroke-opacity="1" stroke-width="1" stroke-linecap="round" stroke-linejoin="round" fill="orange" fill-opacity="1" fill-rule="evenodd" d="M41 138L35 141L27 133L33 128L34 121L18 113L19 106L35 98L37 96L36 93L64 89L69 91L71 99L65 117L52 122L48 114L41 117L35 137z" data-name="21" data-id="Praha 5"></path></g></svg>